PathFileType	4	(x/y/z)	S02_P20_T17
DataRate	CameraRate	NumFrames	NumMarkers	Units	OrigDataRate	OrigDataStartFrame	OrigNumFrames
240	240	9	51	mm	240	86	341
Frame#	Time	Sternum			R.Acromium			L.Acromium			Top.Head			R.ASIS			L.ASIS			R.PSIS			L.PSIS			R.Great.Tro			L.Great.Tro			R.Iliac.Crest			L.Iliac.Crest			V.Sacral			R.Thigh.Upper.Post			R.Thigh.Lower.Ant			R.Thigh.Lower.Post			R.Thigh.Upper.Ant			R.Knee.Lat			R.Knee.Med			R.Shank.Upper.Post			R.Shank.Lower.Ant			R.Shank.Lower.Post			R.Shank.Upper.Ant			R.Ankle.Lat			R.Ankle.Med			R.Heel.Upper			R.Heel.Med			R.Heel.Lat			R.Toe.Lat			R.Toe.Med			R.Toe.Tip			L.Thigh.Upper.Post			L.Thigh.Lower.Ant			L.Thigh.Lower.Post			L.Thigh.Upper.Ant			L.Knee.Lat			L.Knee.Med			L.Shank.Upper.Post			L.Shank.Lower.Ant			L.Shank.Lower.Post			L.Shank.Upper.Ant			L.Ankle.Lat			L.Ankle.Med			L.Heel.Upper			L.Heel.Med			L.Heel.Lat			L.Toe.Lat			L.Toe.Med			L.Toe.Tip			Cervical.Spine			Back			
		X1	Y1	Z1	X2	Y2	Z2	X3	Y3	Z3	X4	Y4	Z4	X5	Y5	Z5	X6	Y6	Z6	X7	Y7	Z7	X8	Y8	Z8	X9	Y9	Z9	X10	Y10	Z10	X11	Y11	Z11	X12	Y12	Z12	X13	Y13	Z13	X14	Y14	Z14	X15	Y15	Z15	X16	Y16	Z16	X17	Y17	Z17	X18	Y18	Z18	X19	Y19	Z19	X20	Y20	Z20	X21	Y21	Z21	X22	Y22	Z22	X23	Y23	Z23	X24	Y24	Z24	X25	Y25	Z25	X26	Y26	Z26	X27	Y27	Z27	X28	Y28	Z28	X29	Y29	Z29	X30	Y30	Z30	X31	Y31	Z31	X32	Y32	Z32	X33	Y33	Z33	X34	Y34	Z34	X35	Y35	Z35	X36	Y36	Z36	X37	Y37	Z37	X38	Y38	Z38	X39	Y39	Z39	X40	Y40	Z40	X41	Y41	Z41	X42	Y42	Z42	X43	Y43	Z43	X44	Y44	Z44	X45	Y45	Z45	X46	Y46	Z46	X47	Y47	Z47	X48	Y48	Z48	X49	Y49	Z49	X50	Y50	Z50	X51	Y51	Z51	

86	0.35417	-781.66	1110.5	312.27	-904.33	1347	440.37	-869.98	1342.6	148.23	-827.68	1629.5	291	-826.48	940.67	402.3	-816.29	920.78	195.34	-1032.6	973.18	348.39	-1042.4	979.21	275.91	-882.84	833.52	496.8	-955.56	844.2	108.85	-926.63	985.17	458.75	-935.57	974.5	129.8	-1063.3	927.95	307.23	-784.79	643.57	486.58	-697.97	599.75	454.65	-758	559.46	464.9	-729.07	682.19	472.75	-708.5	499.42	452.03	-702.03	491.29	310.69	-778.59	295.13	428.68	-701.62	215.8	418.59	-769.95	222.46	419.17	-706.39	283.97	435.34	-750.32	123.49	407.84	-730.45	143.84	325.17	-804.47	113.63	345.56	-786.49	85.873	315.95	-804.9	78.355	377.02	-650.36	63.695	436.06	-606.06	70.355	334.5	-565.92	90.265	397.72	-1020.5	623.51	142.02	-960.11	531.1	148.93	-1037.7	537.02	165.88	-949.82	623.35	126.31	-995.99	454.36	160.88	-999.81	455.64	300.2	-1113.8	305.67	166.94	-1065.5	205.71	183.45	-1134.6	234.17	186.75	-1055.6	279.84	166.09	-1129.3	112.59	198.6	-1117.6	107.48	280.66	-1193.1	82.087	233.57	-1186.4	57.014	266.85	-1190.1	54.671	205.4	-1025.2	34.794	174.88	-1003.5	44.386	284.63	-941.84	55.492	237.04	-961.1	1404.1	285.21	-1037.4	1153.3	283.61
87	0.35833	-776.1	1109.5	312.52	-898.95	1346.1	440.56	-864.3	1341.6	148.51	-822.22	1628.6	291.42	-820.64	939.84	402.42	-810.94	919.65	195.41	-1026.9	972.14	348.74	-1037.2	978.23	276.25	-876.63	832.87	497.03	-950.82	843.75	108.82	-920.91	984.26	458.99	-930.27	973.41	129.99	-1057.8	926.89	307.68	-778.5	642.63	486.44	-692.14	598.72	453.52	-751.94	558.44	464.67	-723.08	681.25	471.63	-702.5	498.47	451.4	-697.55	489.86	309.77	-768.68	292.67	428.8	-690.04	214.96	418.37	-758.47	220.16	419.25	-696.25	283.11	435.11	-736.56	121.22	407.89	-717.32	141.85	325.19	-790.84	109.89	345.84	-772.17	82.505	316.21	-790.2	74.619	377.33	-635.05	63.874	435.96	-591.35	71.476	334.2	-551.45	92.473	397.25	-1017	623.52	142.26	-957.16	530.69	148.95	-1034.7	537.13	166.14	-946.31	622.88	126.35	-993.52	454.1	160.95	-997.31	455.43	300.27	-1112.3	306.1	167.17	-1064.5	205.85	183.5	-1133.4	234.72	186.9	-1054.2	279.89	166.24	-1128.9	113.05	198.69	-1117.2	107.84	280.8	-1192.8	82.712	233.65	-1186.3	57.643	266.94	-1190	55.331	205.48	-1025.2	34.772	174.89	-1003.4	44.351	284.63	-941.73	55.297	237.04	-955.58	1403.2	285.38	-1031.9	1152.4	283.55
88	0.3625	-770.52	1108.4	312.77	-893.53	1345	440.77	-858.64	1340.5	148.81	-816.75	1627.7	291.85	-814.77	938.94	402.54	-805.58	918.46	195.46	-1021.2	971.03	349.12	-1032.1	977.19	276.63	-870.38	832.1	497.24	-946.08	843.26	108.8	-915.14	983.29	459.24	-925	972.26	130.19	-1052.3	925.77	308.16	-772.13	641.62	486.32	-686.28	597.59	452.37	-745.84	557.34	464.49	-717.03	680.21	470.47	-696.51	497.42	450.81	-693.14	488.28	308.86	-759.04	290.29	428.93	-678.88	214.12	418.13	-747.37	217.95	419.33	-686.44	282.23	434.88	-723.28	119.06	407.92	-704.71	139.96	325.21	-777.69	106.32	346.15	-758.39	79.306	316.47	-776	71.056	377.66	-620.28	64.082	435.76	-577.26	72.62	333.76	-537.58	94.648	396.64	-1013.3	623.45	142.52	-954.05	530.23	148.97	-1031.5	537.15	166.41	-942.67	622.36	126.39	-990.86	453.79	161.02	-994.58	455.16	300.36	-1110.6	306.53	167.37	-1063.4	205.96	183.54	-1132.2	235.28	187.04	-1052.7	279.9	166.38	-1128.6	113.53	198.77	-1116.8	108.23	280.91	-1192.6	83.366	233.7	-1186.1	58.297	267.01	-1189.8	56.011	205.54	-1025.1	34.742	174.91	-1003.3	44.315	284.62	-941.63	55.103	237.05	-950.06	1402.2	285.58	-1026.3	1151.4	283.52
89	0.36667	-764.92	1107.2	313.02	-888.08	1343.9	440.99	-852.99	1339.4	149.12	-811.27	1626.7	292.3	-808.87	937.96	402.64	-800.22	917.19	195.47	-1015.5	969.86	349.53	-1026.9	976.08	277.04	-864.09	831.2	497.44	-941.36	842.72	108.81	-909.33	982.26	459.51	-919.74	971.04	130.39	-1046.8	924.59	308.67	-765.7	640.54	486.23	-680.39	596.38	451.21	-739.7	556.17	464.35	-710.93	679.1	469.27	-690.52	496.28	450.25	-688.76	486.56	307.97	-749.71	287.97	429.07	-668.16	213.28	417.89	-736.68	215.83	419.4	-676.97	281.33	434.65	-710.5	116.99	407.94	-692.68	138.16	325.22	-765.08	102.91	346.48	-745.2	76.269	316.73	-762.35	67.663	378.01	-606.11	64.296	435.45	-563.85	73.752	333.2	-524.33	96.755	395.87	-1009.5	623.3	142.78	-950.78	529.71	149	-1028.2	537.09	166.69	-938.92	621.79	126.42	-988	453.4	161.1	-991.62	454.82	300.45	-1108.8	306.98	167.52	-1062.2	206.04	183.57	-1130.9	235.83	187.17	-1051	279.88	166.51	-1128.2	114.02	198.83	-1116.4	108.63	280.99	-1192.3	84.054	233.73	-1185.9	58.984	267.06	-1189.6	56.716	205.57	-1025.1	34.704	174.92	-1003.2	44.278	284.6	-941.52	54.91	237.05	-944.54	1401.2	285.8	-1020.8	1150.3	283.53
90	0.37083	-759.31	1106	313.27	-882.59	1342.8	441.23	-847.36	1338.2	149.44	-805.78	1625.6	292.77	-802.93	936.91	402.73	-794.85	915.85	195.45	-1009.8	968.64	349.99	-1021.6	974.91	277.5	-857.76	830.17	497.64	-936.63	842.13	108.84	-903.47	981.16	459.8	-914.5	969.77	130.6	-1041.2	923.35	309.21	-759.2	639.41	486.15	-674.48	595.08	450.03	-733.53	554.94	464.24	-704.78	677.92	468.06	-684.54	495.05	449.73	-684.42	484.72	307.09	-740.71	285.73	429.21	-657.9	212.42	417.63	-726.42	213.79	419.47	-667.87	280.39	434.42	-698.28	115.01	407.94	-681.25	136.43	325.2	-753.04	99.66	346.84	-732.64	73.384	317	-749.3	64.44	378.37	-592.57	64.491	435.05	-551.14	74.834	332.52	-511.75	98.752	394.95	-1005.6	623.07	143.06	-947.34	529.14	149.02	-1024.6	536.93	166.98	-935.04	621.17	126.47	-984.94	452.95	161.19	-988.4	454.4	300.54	-1106.7	307.43	167.63	-1061	206.1	183.59	-1129.4	236.39	187.27	-1049.3	279.82	166.64	-1127.7	114.53	198.87	-1116	109.05	281.05	-1192	84.786	233.73	-1185.8	59.71	267.09	-1189.5	57.451	205.58	-1025	34.658	174.93	-1003.1	44.24	284.59	-941.41	54.718	237.06	-939.01	1400.2	286.06	-1015.3	1149.3	283.59
91	0.375	-753.67	1104.7	313.52	-877.05	1341.6	441.49	-841.74	1337	149.78	-800.28	1624.6	293.26	-796.97	935.79	402.82	-789.48	914.46	195.39	-1004.1	967.36	350.48	-1016.3	973.67	278	-851.38	829.04	497.81	-931.89	841.49	108.92	-897.56	980.01	460.11	-909.28	968.44	130.81	-1035.7	922.05	309.79	-752.66	638.22	486.08	-668.55	593.72	448.84	-727.32	553.65	464.14	-698.59	676.68	466.82	-678.57	493.75	449.22	-680.11	482.78	306.24	-732.04	283.55	429.35	-648.13	211.53	417.36	-716.61	211.81	419.52	-659.13	279.41	434.17	-686.64	113.1	407.92	-670.46	134.77	325.15	-741.61	96.57	347.2	-720.75	70.644	317.27	-736.88	61.387	378.74	-579.71	64.642	434.54	-539.16	75.825	331.72	-499.85	100.6	393.89	-1001.5	622.75	143.36	-943.73	528.51	149.04	-1021	536.69	167.28	-931.04	620.5	126.51	-981.67	452.43	161.29	-984.93	453.9	300.64	-1104.5	307.89	167.71	-1059.6	206.13	183.6	-1127.9	236.96	187.36	-1047.4	279.72	166.75	-1127.3	115.06	198.88	-1115.5	109.51	281.09	-1191.8	85.571	233.71	-1185.6	60.485	267.09	-1189.3	58.226	205.57	-1025	34.603	174.94	-1003.1	44.201	284.56	-941.3	54.528	237.06	-933.48	1399.1	286.34	-1009.7	1148.2	283.68
92	0.37917	-748.02	1103.3	313.76	-871.48	1340.3	441.78	-836.15	1335.7	150.12	-794.77	1623.5	293.76	-790.98	934.6	402.89	-784.1	913.01	195.3	-998.45	966.02	351.01	-1011	972.37	278.55	-844.96	827.79	497.98	-927.14	840.8	109.04	-891.61	978.79	460.44	-904.08	967.07	131.03	-1030.1	920.71	310.4	-746.08	637	485.99	-662.59	592.31	447.64	-721.09	552.32	464.04	-692.35	675.38	465.58	-672.6	492.4	448.74	-675.81	480.76	305.41	-723.73	281.44	429.47	-638.84	210.6	417.06	-707.28	209.9	419.55	-650.78	278.39	433.89	-675.62	111.26	407.87	-660.33	133.15	325.07	-730.82	93.638	347.56	-709.57	68.039	317.52	-725.15	58.503	379.1	-567.57	64.725	433.94	-527.95	76.683	330.81	-488.66	102.25	392.7	-997.34	622.35	143.67	-939.94	527.83	149.07	-1017.1	536.35	167.59	-926.9	619.79	126.57	-978.19	451.85	161.39	-981.2	453.31	300.73	-1102.1	308.36	167.76	-1058.2	206.13	183.59	-1126.2	237.54	187.42	-1045.3	279.59	166.85	-1126.8	115.63	198.86	-1115.1	110	281.09	-1191.5	86.42	233.66	-1185.4	61.319	267.07	-1189.1	59.048	205.53	-1024.9	34.539	174.94	-1003	44.161	284.53	-941.19	54.338	237.07	-927.95	1398	286.66	-1004.2	1147	283.82
93	0.38333	-742.36	1101.8	313.99	-865.86	1339.1	442.09	-830.58	1334.4	150.49	-789.25	1622.3	294.27	-784.95	933.36	402.95	-778.7	911.52	195.18	-992.76	964.64	351.6	-1005.6	971.02	279.16	-838.5	826.45	498.13	-922.36	840.04	109.21	-885.6	977.52	460.79	-898.89	965.64	131.27	-1024.5	919.31	311.05	-739.47	635.75	485.88	-656.62	590.84	446.44	-714.86	550.96	463.93	-686.08	674.04	464.35	-666.64	490.99	448.26	-671.51	478.67	304.6	-715.78	279.39	429.57	-630.05	209.61	416.73	-698.44	208.05	419.55	-642.8	277.31	433.59	-665.25	109.49	407.79	-650.86	131.56	324.95	-720.7	90.864	347.92	-699.12	65.561	317.76	-714.13	55.788	379.45	-556.17	64.716	433.26	-517.51	77.37	329.8	-478.19	103.67	391.39	-993.01	621.87	144	-935.98	527.11	149.09	-1013	535.92	167.91	-922.63	619.04	126.64	-974.5	451.2	161.5	-977.21	452.63	300.8	-1099.5	308.84	167.77	-1056.7	206.12	183.57	-1124.5	238.14	187.46	-1043.1	279.44	166.93	-1126.2	116.22	198.82	-1114.6	110.54	281.06	-1191.2	87.343	233.59	-1185.3	62.222	267.02	-1188.9	59.928	205.47	-1024.8	34.467	174.94	-1002.9	44.119	284.49	-941.08	54.151	237.08	-922.41	1396.9	287.02	-998.65	1145.9	284
94	0.3875	-736.68	1100.3	314.22	-860.2	1337.7	442.43	-825.03	1333	150.86	-783.73	1621.2	294.8	-778.9	932.06	403	-773.29	909.99	195.02	-987.05	963.22	352.22	-1000.1	969.62	279.81	-831.99	825.01	498.26	-917.56	839.23	109.43	-879.54	976.19	461.17	-893.73	964.18	131.51	-1018.8	917.88	311.74	-732.85	634.46	485.74	-650.63	589.34	445.25	-708.62	549.57	463.79	-679.79	672.65	463.12	-660.7	489.54	447.79	-667.21	476.55	303.82	-708.19	277.41	429.65	-621.76	208.55	416.36	-690.08	206.25	419.53	-635.21	276.16	433.24	-655.55	107.77	407.67	-642.08	129.99	324.79	-711.27	88.247	348.25	-689.42	63.202	317.98	-703.87	53.244	379.79	-545.54	64.594	432.48	-507.85	77.847	328.7	-468.46	104.82	389.97	-988.54	621.32	144.35	-931.83	526.33	149.12	-1008.8	535.41	168.25	-918.23	618.25	126.72	-970.6	450.48	161.6	-972.97	451.86	300.87	-1096.8	309.32	167.76	-1055	206.1	183.52	-1122.6	238.75	187.47	-1040.8	279.27	167.01	-1125.6	116.86	198.74	-1114.1	111.12	281	-1190.8	88.353	233.49	-1185	63.207	266.95	-1188.6	60.877	205.38	-1024.8	34.388	174.94	-1002.9	44.078	284.45	-940.98	53.964	237.08	-916.86	1395.8	287.41	-993.1	1144.6	284.24
